PathFileType	4	(X/Y/Z)	D:\TRACE\v60_Jaco2_6-2-23\JustBodyDRS_Motion1_5-platform.trc
DataRate	CameraRate	NumFrames	NumMarkers	Units	OrigDataRate	OrigDataStartFrame	OrigNumFrames
100.00	100.00	      67	5	mm	100.00	3352	      6702
Frame#	Time	Left_Front			Right_Front			Left_Aft			Right_Aft			Post			
		X1	Y1	Z1	X2	Y2	Z2	X3	Y3	Z3	X4	Y4	Z4	X5	Y5	Z5	

3352	33.510	-814.72925	27.95673	-633.80206	755.66461	28.84346	-639.28058	-722.51978	-5.57031	500.69873	719.61499	-6.82427	510.04926	-28.04231	1335.71167	-919.35834	
3353	33.520	-813.86725	27.37211	-634.12323	756.31525	28.51307	-639.39612	-721.62256	-5.36363	500.55038	720.19141	-6.61583	509.89172	-27.06630	1334.94458	-920.38904	
3354	33.530	-812.77386	26.99582	-634.29242	757.11053	28.04533	-639.36688	-720.74188	-5.21303	500.53232	721.28497	-6.43495	509.76761	-26.02415	1334.47314	-921.88660	
3355	33.540	-811.78027	26.95617	-634.30469	758.39191	27.58228	-639.47388	-719.65369	-4.91585	500.54395	722.46442	-6.22628	509.76654	-25.15036	1334.09534	-923.19098	
3356	33.550	-810.92230	26.84600	-634.24780	759.13678	27.41361	-639.59033	-718.74487	-4.71341	500.40210	722.83826	-6.17048	509.55170	-24.15448	1333.56042	-924.28021	
3357	33.560	-809.97034	26.38253	-634.50623	759.97675	27.03201	-639.69427	-717.87726	-4.36857	500.40280	724.24463	-5.83363	509.46240	-23.18629	1333.08325	-924.96533	
3358	33.570	-809.04321	26.05023	-634.66559	760.82123	26.61000	-639.85571	-716.93646	-4.10490	500.16339	725.05219	-5.49434	509.41977	-22.36378	1332.72412	-925.79114	
3359	33.580	-808.04199	25.44941	-634.81769	761.76331	26.22690	-640.02338	-715.93243	-3.90238	500.14456	725.88354	-5.13396	509.14169	-21.77105	1332.03284	-925.84497	
3360	33.590	-807.27570	25.22935	-634.83801	762.79016	25.72446	-640.19513	-715.20990	-3.61775	500.01791	727.12122	-4.75664	509.13687	-20.47804	1331.36536	-926.27771	
3361	33.600	-806.04980	24.77240	-635.31537	763.69775	25.46963	-640.37335	-714.05133	-3.35524	499.83179	727.78821	-4.56088	509.13287	-19.60879	1330.89978	-926.47949	
3362	33.610	-805.34601	24.37574	-635.15033	764.65088	25.08633	-640.31635	-713.05591	-3.08962	499.74060	728.53729	-4.22997	508.95111	-19.01894	1330.23218	-926.78900	
3363	33.620	-804.42798	23.83333	-634.91193	765.54718	24.62914	-640.41522	-712.35980	-2.74910	499.72681	729.92017	-3.80961	508.93839	-17.90226	1329.75623	-927.76593	
3364	33.630	-803.34595	23.32924	-635.15302	766.56293	24.37668	-640.80591	-711.32294	-2.52305	499.69385	730.54846	-3.59005	508.80453	-17.02130	1329.16956	-928.67657	
3365	33.640	-802.24182	22.95856	-635.64655	767.58844	23.79469	-640.69080	-710.49719	-1.97829	499.42911	731.62543	-3.36735	508.72729	-16.19554	1328.54810	-930.18158	
3366	33.650	-801.50500	22.85530	-635.66486	768.27423	23.48417	-640.78162	-709.78027	-1.74111	499.43039	732.73816	-3.12974	508.67349	-14.86009	1327.91895	-931.34344	
3367	33.660	-800.53723	22.42146	-635.42029	769.31824	23.04191	-641.03503	-708.72064	-1.47614	499.20526	733.42584	-2.89200	508.58093	-14.06188	1327.51477	-932.98102	
3368	33.670	-799.44733	22.03610	-635.59149	770.55603	22.85467	-640.94379	-707.50525	-1.30723	499.06342	734.75830	-2.54681	508.56271	-12.48437	1327.01868	-934.09662	
3369	33.680	-798.70953	21.65433	-635.90271	771.46564	22.58618	-641.20245	-706.70770	-1.02349	498.98410	735.55731	-2.35349	508.41171	-12.00230	1326.74561	-934.91644	
3370	33.690	-797.78546	21.38971	-636.01526	772.47180	22.09101	-641.28235	-705.56488	-0.79474	498.97800	736.35895	-2.22008	508.23660	-11.37717	1326.16907	-935.90308	
3371	33.700	-796.40198	20.71759	-636.02344	773.28979	21.92864	-641.32721	-704.64960	-0.66459	498.91043	737.30524	-1.76598	508.11447	-10.14805	1325.24084	-936.51105	
3372	33.710	-795.55121	20.36969	-636.15332	774.38306	21.41344	-641.48340	-703.60492	-0.37518	498.85208	738.23560	-1.51611	507.90442	-8.97253	1324.62329	-937.11090	
3373	33.720	-794.87762	20.24067	-636.39496	775.39227	20.95748	-641.61072	-702.59564	-0.06382	498.71930	739.68640	-0.95471	507.98834	-8.61396	1324.35632	-937.37054	
3374	33.730	-793.73755	19.78452	-636.42419	776.11255	20.71795	-641.63507	-701.72345	0.26437	498.50836	740.14716	-0.79141	507.77292	-7.14373	1323.64221	-937.87482	
3375	33.740	-792.51160	19.25510	-636.29749	777.23907	20.26395	-641.70178	-700.87598	0.51235	498.50031	741.29004	-0.48251	507.67117	-6.54047	1323.15747	-938.21283	
3376	33.750	-791.79401	18.71443	-636.52899	778.18280	19.83396	-641.96558	-699.64368	0.63380	498.51007	742.43085	-0.22638	507.74792	-5.90562	1322.69348	-939.03693	
3377	33.760	-790.97211	18.44889	-636.80774	779.20294	19.46800	-641.87976	-698.55597	0.76479	498.46295	743.22589	0.09590	507.57108	-4.54661	1322.12036	-939.83612	
3378	33.770	-789.74329	18.04160	-636.91650	780.06396	19.14458	-642.00122	-697.67139	0.96613	498.31339	744.46191	0.41203	507.54428	-3.71514	1321.69275	-941.18506	
3379	33.780	-788.85089	17.88932	-636.73596	781.17969	18.77957	-642.03973	-696.71393	1.32298	498.33383	745.26984	0.59191	507.47916	-2.70659	1320.97180	-942.41510	
3380	33.790	-787.98505	17.43240	-636.88354	782.04388	18.37153	-642.20758	-695.48364	1.43698	498.26865	745.90979	0.64041	507.41550	-1.62805	1320.55725	-943.91785	
3381	33.800	-787.01306	17.06988	-637.23401	783.04315	18.22380	-642.34821	-694.55450	1.85265	498.14020	747.18835	0.99694	507.32275	-0.80753	1319.97949	-944.68762	
3382	33.810	-786.04956	16.65893	-637.30920	783.90186	18.00626	-642.43207	-693.86115	2.02013	497.97681	747.88416	1.27311	507.04773	0.46348	1319.41907	-945.60339	
3383	33.820	-785.01819	16.52472	-637.25726	784.83057	17.59734	-642.53711	-692.85828	2.29674	497.80884	748.75452	1.58910	506.95428	1.70027	1318.49756	-946.36389	
3384	33.830	-783.93549	15.65664	-637.34210	785.87543	17.16064	-642.71100	-691.91663	2.61806	497.85269	750.25378	1.96924	506.87704	1.93697	1318.08716	-947.39954	
3385	33.840	-782.95416	14.78757	-637.70752	786.88690	16.28573	-642.64056	-690.93939	2.79422	497.81769	750.81989	2.23923	506.76111	2.83874	1317.61755	-948.06268	
3386	33.850	-782.30341	14.64050	-637.65912	787.83441	16.09248	-642.70093	-690.26141	3.55360	497.39883	751.98181	2.73241	506.62054	4.09698	1317.01721	-948.57208	
3387	33.860	-781.30621	14.17727	-637.47559	788.70514	15.74239	-643.03778	-689.41113	3.89047	497.35355	752.77258	2.83848	506.57358	5.05619	1316.31116	-949.25177	
3388	33.870	-780.13599	13.89636	-637.87329	789.68964	15.36414	-643.13043	-688.05505	3.51142	497.40952	753.61493	2.96098	506.47318	5.91477	1315.79858	-949.85297	
3389	33.880	-779.47028	13.71752	-638.14410	790.58679	15.09030	-642.96637	-687.39783	4.30256	497.19086	754.75739	3.41894	506.41486	6.97789	1315.22083	-951.04669	
3390	33.890	-778.58612	13.18720	-638.11707	791.48657	14.67816	-643.23865	-686.84674	4.90472	496.69016	755.30145	3.60288	506.31854	7.48518	1314.66675	-951.81519	
3391	33.900	-777.55365	12.86192	-638.05804	792.40112	14.41992	-643.26050	-685.69336	4.66340	496.90814	756.84369	4.13820	506.29782	8.59471	1314.34937	-952.85883	
3392	33.910	-776.68738	12.49800	-638.20099	793.28955	14.01277	-643.48529	-684.70911	4.76856	496.75262	757.41040	4.10337	506.31836	9.78427	1313.80566	-953.72083	
3393	33.920	-775.89325	12.10826	-638.44244	794.22754	13.70729	-643.55109	-683.77991	4.96607	496.71851	758.15411	4.15636	505.96246	10.23891	1313.29529	-954.56836	
3394	33.930	-775.08820	12.17099	-638.57166	795.04498	13.52605	-643.59436	-682.86865	5.32232	496.76135	759.40674	4.64948	505.90991	11.41722	1312.67773	-955.49530	
3395	33.940	-773.75275	11.67232	-638.55713	795.96185	13.16502	-643.81616	-681.85815	5.36338	496.52228	760.11920	4.90826	505.87717	12.06462	1312.29761	-955.87836	
3396	33.950	-773.00464	11.27912	-638.68768	796.96899	12.65213	-643.80249	-681.08325	5.87333	496.36682	760.67645	5.22195	505.72318	12.99645	1311.70239	-956.78778	
3397	33.960	-772.39667	10.73925	-638.79443	797.63477	12.20418	-643.92151	-680.65295	6.31983	497.08762	762.05627	5.70080	505.65884	13.74268	1311.04639	-957.09149	
3398	33.970	-771.56073	10.27624	-638.76929	798.54431	11.58980	-643.99573	-680.03052	6.78847	496.51053	762.60028	5.79385	505.58035	14.84897	1310.31519	-957.89233	
3399	33.980	-770.40729	9.66620	-638.98285	799.38641	11.40592	-644.17200	-679.05768	7.19430	496.47211	763.10516	6.03406	505.43387	15.42248	1309.87109	-958.66736	
3400	33.990	-769.66522	9.50496	-638.98663	800.14203	11.05338	-644.35394	-678.54773	7.90063	496.21832	764.81757	6.63407	505.38300	16.23377	1309.27136	-959.75562	
3401	34.000	-768.93835	9.16304	-639.10266	801.05170	10.54368	-644.49823	-677.64264	8.08009	496.16510	765.21265	6.57090	505.27194	17.70445	1308.69006	-960.68707	
3402	34.010	-768.41528	8.83074	-639.30200	801.98846	10.27072	-644.56140	-676.90643	8.40115	496.07202	765.67053	6.65298	505.18573	18.00907	1308.24768	-961.75922	
3403	34.020	-767.19061	8.05422	-639.10052	802.55334	9.91358	-644.70966	-676.23700	8.57608	495.84482	767.05542	7.16060	505.07895	18.68200	1307.98169	-962.98132	
3404	34.030	-766.48553	7.97090	-639.37030	803.34039	9.53807	-644.68048	-674.58643	7.62003	495.62875	767.76782	7.40695	505.01935	19.72117	1307.34131	-963.68811	
3405	34.040	-765.81659	7.76074	-639.41846	804.17816	9.19057	-644.87732	-673.52020	8.26491	495.52661	768.32007	7.60189	505.02908	20.53985	1306.82947	-964.47577	
3406	34.050	-764.95703	7.27456	-639.48370	805.00061	8.99896	-645.11877	-672.99280	8.32968	495.56339	769.23193	8.04467	504.98993	21.21112	1306.15979	-965.54803	
3407	34.060	-764.08374	7.01680	-639.61798	805.83881	8.63690	-645.05670	-672.08563	8.63878	495.57602	769.86176	8.19766	504.85898	21.74452	1305.60010	-965.96063	
3408	34.070	-763.38452	6.52837	-639.54236	806.48572	8.20553	-645.08069	-671.52960	8.92224	495.38629	770.54321	8.26306	504.59354	22.80169	1305.02075	-966.26917	
3409	34.080	-762.67517	6.06131	-639.56281	807.15112	7.73142	-645.11035	-670.69806	8.96243	495.28128	771.25781	8.54431	504.47940	23.54222	1304.49390	-966.97510	
3410	34.090	-762.04987	5.86412	-639.85114	807.93768	7.41770	-645.25427	-670.15997	9.50244	495.10559	772.35602	8.94926	504.35889	23.83704	1304.13623	-967.22351	
3411	34.100	-761.09631	5.53408	-640.04626	808.65222	7.10082	-645.39410	-669.27795	9.69440	495.05273	772.71277	9.11774	504.24606	24.69716	1303.58582	-967.90155	
3412	34.110	-760.46167	5.23025	-640.09869	809.32220	6.71941	-645.53040	-668.57959	10.05690	495.10022	773.34979	9.41375	504.08780	25.60700	1302.84753	-968.54803	
3413	34.120	-759.95502	4.61813	-639.94037	810.04523	6.45430	-645.47504	-668.10779	10.32462	495.03531	774.08087	9.71317	504.12335	26.03016	1302.37817	-969.85236	
3414	34.130	-759.24152	4.41914	-640.25671	810.58557	6.21147	-645.49701	-667.57196	10.65154	494.92197	774.84967	10.03434	504.02750	26.59632	1301.86963	-970.82111	
3415	34.140	-758.74097	4.11529	-640.44019	811.27606	5.75072	-645.69647	-666.89667	10.96444	494.72876	775.47278	10.27382	503.94858	27.01042	1301.51648	-972.23151	
3416	34.150	-757.85132	3.82136	-640.57617	811.79211	5.51819	-645.77356	-666.32422	11.14260	494.47900	776.78687	10.97817	505.01410	28.16603	1300.72327	-973.29730	
3417	34.160	-757.27765	3.53589	-640.66846	812.71002	5.24488	-645.85254	-665.69806	11.56593	494.26334	777.03308	10.97100	504.57120	28.79669	1300.09045	-974.05371	
3418	34.170	-756.83093	3.19708	-640.66986	813.30212	4.77927	-645.94354	-665.66693	12.11650	494.51828	777.69836	11.33673	504.45673	29.02665	1299.70642	-974.97272	
